<svg xmlns="http://www.w3.org/2000/svg" viewBox="0 0 100 100">
  <defs>
    <!-- userSpaceOnUse: gradiente funciona também em linhas 100% retas
         (com objectBoundingBox a bbox de largura zero faz a linha sumir) -->
    <linearGradient id="g" x1="0" y1="0" x2="100" y2="100" gradientUnits="userSpaceOnUse">
      <stop offset="0" stop-color="#e8c96a"/><stop offset="1" stop-color="#b8912e"/>
    </linearGradient>
  </defs>
  <rect width="100" height="100" rx="22" fill="#12161d"/>
  <g transform="translate(8,8) scale(0.84)">
    <g stroke="url(#g)" stroke-width="5" fill="none" stroke-linecap="round">
      <line x1="50" y1="10" x2="50" y2="90"/>
      <line x1="50" y1="50" x2="16" y2="30"/>
      <line x1="50" y1="50" x2="16" y2="70"/>
      <line x1="38" y1="43" x2="30" y2="33"/><line x1="38" y1="43" x2="27" y2="46"/>
      <line x1="38" y1="57" x2="30" y2="67"/><line x1="38" y1="57" x2="27" y2="54"/>
      <line x1="50" y1="24" x2="41" y2="18"/><line x1="50" y1="76" x2="41" y2="82"/>
      <path d="M56 22 L82 22 L90 38 L90 62 L82 78 L56 78"/>
      <line x1="56" y1="36" x2="72" y2="36"/><line x1="56" y1="64" x2="72" y2="64"/>
      <line x1="72" y1="36" x2="72" y2="50"/><line x1="72" y1="50" x2="62" y2="50"/>
    </g>
    <g fill="url(#g)">
      <circle cx="82" cy="22" r="5"/><circle cx="82" cy="78" r="5"/>
      <circle cx="72" cy="36" r="4.5"/><circle cx="72" cy="64" r="4.5"/>
      <circle cx="62" cy="50" r="4.5"/>
    </g>
  </g>
</svg>
